HIERARCHY
ROOT newVegas:Hips
{
	OFFSET 0.000000 96.479958 0.000000
	CHANNELS 6 Xposition Yposition Zposition Xrotation Yrotation Zrotation
	JOINT newVegas:Pelvis
	{
		OFFSET 0.000000 0.000000 0.000000
		CHANNELS 3 Xrotation Yrotation Zrotation
		JOINT newVegas:LeftUpLeg
		{
			OFFSET 18.735201 -5.666702 -4.541200
			CHANNELS 3 Xrotation Yrotation Zrotation
			JOINT newVegas:LeftLeg
			{
				OFFSET -0.021200 -31.938179 0.493100
				CHANNELS 3 Xrotation Yrotation Zrotation
				JOINT newVegas:LeftFoot
				{
					OFFSET 0.021200 -31.938179 -4.336299
					CHANNELS 3 Xrotation Yrotation Zrotation
					JOINT newVegas:LeftToeBase
					{
						OFFSET 0.943001 -26.722000 15.023500
						CHANNELS 3 Xrotation Yrotation Zrotation
						End Site
						{
							OFFSET 0.000000 30.670183 0.000000
						}
					}
				}
				JOINT newVegas:Left_PantLeg
				{
					OFFSET 0.663870 -9.044666 -1.108900
					CHANNELS 3 Xrotation Yrotation Zrotation
					End Site
					{
						OFFSET 1.415995 20.635357 0.000000
					}
				}
			}
		}
		JOINT newVegas:RightUpLeg
		{
			OFFSET -18.735201 -5.666702 -4.541200
			CHANNELS 3 Xrotation Yrotation Zrotation
			JOINT newVegas:RightLeg
			{
				OFFSET 0.018946 -31.938133 0.493100
				CHANNELS 3 Xrotation Yrotation Zrotation
				JOINT newVegas:RightFoot
				{
					OFFSET -0.018946 -31.938126 -4.336299
					CHANNELS 3 Xrotation Yrotation Zrotation
					JOINT newVegas:RightToeBase
					{
						OFFSET -0.943001 -26.722004 15.023500
						CHANNELS 3 Xrotation Yrotation Zrotation
						End Site
						{
							OFFSET 0.000000 30.670187 0.000000
						}
					}
				}
				JOINT newVegas:Right_PantLeg
				{
					OFFSET -0.661674 -9.044716 -1.108900
					CHANNELS 3 Xrotation Yrotation Zrotation
					End Site
					{
						OFFSET -1.415958 20.635269 0.000000
					}
				}
			}
		}
	}
	JOINT newVegas:Spine
	{
		OFFSET 0.000000 10.199997 -0.299500
		CHANNELS 3 Xrotation Yrotation Zrotation
		JOINT newVegas:Spine1
		{
			OFFSET 0.000000 11.900002 -1.516600
			CHANNELS 3 Xrotation Yrotation Zrotation
			JOINT newVegas:Spine2
			{
				OFFSET 0.000000 13.600006 -2.842500
				CHANNELS 3 Xrotation Yrotation Zrotation
				JOINT newVegas:Neck
				{
					OFFSET 0.000000 9.624100 -2.890100
					CHANNELS 3 Xrotation Yrotation Zrotation
					JOINT newVegas:Head
					{
						OFFSET 0.000000 14.068802 -1.351900
						CHANNELS 3 Xrotation Yrotation Zrotation
						JOINT newVegas:Hair_Back
						{
							OFFSET 0.000000 3.231903 -17.524799
							CHANNELS 3 Xrotation Yrotation Zrotation
							End Site
							{
								OFFSET 0.000000 19.849884 0.000000
							}
						}
						JOINT newVegas:Hair_Front
						{
							OFFSET 0.000000 31.260406 4.573800
							CHANNELS 3 Xrotation Yrotation Zrotation
							JOINT newVegas:Hair_Front1
							{
								OFFSET 0.000000 2.284103 11.993300
								CHANNELS 3 Xrotation Yrotation Zrotation
								JOINT newVegas:Hair_Front2
								{
									OFFSET 0.000000 2.284103 11.993300
									CHANNELS 3 Xrotation Yrotation Zrotation
									End Site
									{
										OFFSET 0.000000 12.208862 0.000000
									}
								}
							}
						}
						JOINT newVegas:Jowel
						{
							OFFSET 0.000000 -7.458206 6.864100
							CHANNELS 3 Xrotation Yrotation Zrotation
							End Site
							{
								OFFSET 0.000000 19.849884 0.000000
							}
						}
					}
				}
				JOINT newVegas:LeftShoulder
				{
					OFFSET 15.263000 10.923401 -0.547700
					CHANNELS 3 Xrotation Yrotation Zrotation
					JOINT newVegas:LeftArm
					{
						OFFSET 25.438599 -2.830597 -13.032500
						CHANNELS 3 Xrotation Yrotation Zrotation
						JOINT newVegas:LeftForeArm
						{
							OFFSET 29.960503 0.000000 0.000000
							CHANNELS 3 Xrotation Yrotation Zrotation
							JOINT newVegas:LeftHand
							{
								OFFSET 27.849251 0.000000 0.000000
								CHANNELS 3 Xrotation Yrotation Zrotation
								JOINT newVegas:LeftHandThumb1
								{
									OFFSET 4.487587 -3.305161 6.305391
									CHANNELS 3 Xrotation Yrotation Zrotation
									JOINT newVegas:LeftHandThumb2
									{
										OFFSET 5.480453 -3.164139 3.164143
										CHANNELS 3 Xrotation Yrotation Zrotation
										JOINT newVegas:LeftHandThumb3
										{
											OFFSET 5.159721 -2.978973 2.978967
											CHANNELS 3 Xrotation Yrotation Zrotation
											End Site
											{
												OFFSET 2.494507 5.926697 1.738678
											}
										}
									}
								}
								JOINT newVegas:LeftHandIndex1
								{
									OFFSET 18.578728 -0.527832 5.208049
									CHANNELS 3 Xrotation Yrotation Zrotation
									JOINT newVegas:LeftHandIndex2
									{
										OFFSET 3.192009 0.000000 0.000000
										CHANNELS 3 Xrotation Yrotation Zrotation
										JOINT newVegas:LeftHandIndex3
										{
											OFFSET 3.835129 0.000000 0.000000
											CHANNELS 3 Xrotation Yrotation Zrotation
											End Site
											{
												OFFSET -0.034599 3.816971 0.371180
											}
										}
									}
								}
								JOINT newVegas:LeftHandMiddle1
								{
									OFFSET 18.476105 0.000000 0.000000
									CHANNELS 3 Xrotation Yrotation Zrotation
									JOINT newVegas:LeftHandMiddle2
									{
										OFFSET 3.324875 0.000000 0.000000
										CHANNELS 3 Xrotation Yrotation Zrotation
										JOINT newVegas:LeftHandMiddle3
										{
											OFFSET 4.596550 0.000000 0.000000
											CHANNELS 3 Xrotation Yrotation Zrotation
											End Site
											{
												OFFSET 0.057701 4.578827 0.399218
											}
										}
									}
								}
								JOINT newVegas:LeftHandRing1
								{
									OFFSET 17.732719 0.121887 -4.201567
									CHANNELS 3 Xrotation Yrotation Zrotation
									JOINT newVegas:LeftHandRing2
									{
										OFFSET 2.733170 0.000000 0.000000
										CHANNELS 3 Xrotation Yrotation Zrotation
										JOINT newVegas:LeftHandRing3
										{
											OFFSET 3.178268 0.000000 0.000000
											CHANNELS 3 Xrotation Yrotation Zrotation
											End Site
											{
												OFFSET 0.119102 3.170624 0.185394
											}
										}
									}
								}
								JOINT newVegas:LeftHandPinky1
								{
									OFFSET 15.989624 -0.606689 -7.535461
									CHANNELS 3 Xrotation Yrotation Zrotation
									JOINT newVegas:LeftHandPinky2
									{
										OFFSET 2.538986 0.000000 0.000000
										CHANNELS 3 Xrotation Yrotation Zrotation
										JOINT newVegas:LeftHandPinky3
										{
											OFFSET 2.593102 0.000000 0.000000
											CHANNELS 3 Xrotation Yrotation Zrotation
											End Site
											{
												OFFSET -0.150902 2.584198 0.152708
											}
										}
									}
								}
							}
							JOINT newVegas:Left_Sleeve
							{
								OFFSET 0.267448 -0.649796 0.577675
								CHANNELS 3 Xrotation Yrotation Zrotation
								End Site
								{
									OFFSET 0.000000 15.991241 0.000000
								}
							}
							JOINT newVegas:Left_CapeC
							{
								OFFSET 15.715958 -8.608795 -6.935905
								CHANNELS 3 Xrotation Yrotation Zrotation
								JOINT newVegas:Left_CapeC1
								{
									OFFSET 0.000000 -8.688499 0.000000
									CHANNELS 3 Xrotation Yrotation Zrotation
									End Site
									{
										OFFSET 0.000000 8.688499 0.000000
									}
								}
							}
						}
						JOINT newVegas:Left_CapeB
						{
							OFFSET 26.118385 -8.608795 -7.079235
							CHANNELS 3 Xrotation Yrotation Zrotation
							JOINT newVegas:Left_CapeB1
							{
								OFFSET 0.000000 -8.688499 0.000000
								CHANNELS 3 Xrotation Yrotation Zrotation
								End Site
								{
									OFFSET 0.000000 8.688499 0.000000
								}
							}
						}
						JOINT newVegas:Left_CapeA
						{
							OFFSET 5.115639 -8.608795 -10.395809
							CHANNELS 3 Xrotation Yrotation Zrotation
							JOINT newVegas:Left_CapeA1
							{
								OFFSET 0.000000 -8.688499 0.000000
								CHANNELS 3 Xrotation Yrotation Zrotation
								End Site
								{
									OFFSET 0.000000 8.688499 0.000000
								}
							}
						}
					}
				}
				JOINT newVegas:RightShoulder
				{
					OFFSET -15.263000 10.923401 -0.547700
					CHANNELS 3 Xrotation Yrotation Zrotation
					JOINT newVegas:RightArm
					{
						OFFSET -25.438599 -2.830597 -13.032500
						CHANNELS 3 Xrotation Yrotation Zrotation
						JOINT newVegas:RightForeArm
						{
							OFFSET -29.960503 0.000000 0.000000
							CHANNELS 3 Xrotation Yrotation Zrotation
							JOINT newVegas:RightHand
							{
								OFFSET -27.849251 0.000000 0.000000
								CHANNELS 3 Xrotation Yrotation Zrotation
								JOINT newVegas:RightHandThumb1
								{
									OFFSET -4.487587 -3.305161 6.305391
									CHANNELS 3 Xrotation Yrotation Zrotation
									JOINT newVegas:RightHandThumb2
									{
										OFFSET -5.480453 -3.164139 3.164143
										CHANNELS 3 Xrotation Yrotation Zrotation
										JOINT newVegas:RightHandThumb3
										{
											OFFSET -5.159721 -2.978973 2.978967
											CHANNELS 3 Xrotation Yrotation Zrotation
											End Site
											{
												OFFSET -2.494507 5.926697 1.738678
											}
										}
									}
								}
								JOINT newVegas:RightHandIndex1
								{
									OFFSET -18.578728 -0.527832 5.208049
									CHANNELS 3 Xrotation Yrotation Zrotation
									JOINT newVegas:RightHandIndex2
									{
										OFFSET -3.192009 0.000000 0.000000
										CHANNELS 3 Xrotation Yrotation Zrotation
										JOINT newVegas:RightHandIndex3
										{
											OFFSET -3.835129 0.000000 0.000000
											CHANNELS 3 Xrotation Yrotation Zrotation
											End Site
											{
												OFFSET 0.034599 3.816971 0.371180
											}
										}
									}
								}
								JOINT newVegas:RightHandMiddle1
								{
									OFFSET -18.476105 0.000000 0.000000
									CHANNELS 3 Xrotation Yrotation Zrotation
									JOINT newVegas:RightHandMiddle2
									{
										OFFSET -3.324875 0.000000 0.000000
										CHANNELS 3 Xrotation Yrotation Zrotation
										JOINT newVegas:RightHandMiddle3
										{
											OFFSET -4.596550 0.000000 0.000000
											CHANNELS 3 Xrotation Yrotation Zrotation
											End Site
											{
												OFFSET -0.057701 4.578827 0.399218
											}
										}
									}
								}
								JOINT newVegas:RightHandRing1
								{
									OFFSET -17.732719 0.121887 -4.201567
									CHANNELS 3 Xrotation Yrotation Zrotation
									JOINT newVegas:RightHandRing2
									{
										OFFSET -2.733170 0.000000 0.000000
										CHANNELS 3 Xrotation Yrotation Zrotation
										JOINT newVegas:RightHandRing3
										{
											OFFSET -3.178268 0.000000 0.000000
											CHANNELS 3 Xrotation Yrotation Zrotation
											End Site
											{
												OFFSET -0.119102 3.170624 0.185394
											}
										}
									}
								}
								JOINT newVegas:RightHandPinky1
								{
									OFFSET -15.989624 -0.606689 -7.535461
									CHANNELS 3 Xrotation Yrotation Zrotation
									JOINT newVegas:RightHandPinky2
									{
										OFFSET -2.538986 0.000000 0.000000
										CHANNELS 3 Xrotation Yrotation Zrotation
										JOINT newVegas:RightHandPinky3
										{
											OFFSET -2.593102 0.000000 0.000000
											CHANNELS 3 Xrotation Yrotation Zrotation
											End Site
											{
												OFFSET 0.150902 2.584198 0.152708
											}
										}
									}
								}
							}
							JOINT newVegas:Right_CapeC
							{
								OFFSET -15.715958 -8.608795 -6.935905
								CHANNELS 3 Xrotation Yrotation Zrotation
								JOINT newVegas:Right_CapeC1
								{
									OFFSET 0.000000 -8.688499 0.000000
									CHANNELS 3 Xrotation Yrotation Zrotation
									End Site
									{
										OFFSET 0.000000 8.688499 0.000000
									}
								}
							}
							JOINT newVegas:Right_Sleeve
							{
								OFFSET -0.267448 -0.649994 0.577675
								CHANNELS 3 Xrotation Yrotation Zrotation
								End Site
								{
									OFFSET 0.000000 15.991302 0.000000
								}
							}
						}
						JOINT newVegas:Right_CapeA
						{
							OFFSET -5.115540 -8.608795 -10.395824
							CHANNELS 3 Xrotation Yrotation Zrotation
							JOINT newVegas:Right_CapeA1
							{
								OFFSET 0.000000 -8.688499 0.000000
								CHANNELS 3 Xrotation Yrotation Zrotation
								End Site
								{
									OFFSET 0.000000 8.688499 0.000000
								}
							}
						}
						JOINT newVegas:Right_CapeB
						{
							OFFSET -26.118187 -8.608795 -7.079266
							CHANNELS 3 Xrotation Yrotation Zrotation
							JOINT newVegas:Right_CapeB1
							{
								OFFSET 0.000000 -8.688499 0.000000
								CHANNELS 3 Xrotation Yrotation Zrotation
								End Site
								{
									OFFSET 0.000000 8.688499 0.000000
								}
							}
						}
					}
				}
				JOINT newVegas:Left_Collar
				{
					OFFSET 18.625099 8.655502 8.828100
					CHANNELS 3 Xrotation Yrotation Zrotation
					JOINT newVegas:Left_Collar1
					{
						OFFSET 14.783401 10.540405 -1.259500
						CHANNELS 3 Xrotation Yrotation Zrotation
						End Site
						{
							OFFSET 0.000000 18.199875 0.000000
						}
					}
				}
				JOINT newVegas:Collar_Back
				{
					OFFSET 0.000000 15.630707 -20.132601
					CHANNELS 3 Xrotation Yrotation Zrotation
					End Site
					{
						OFFSET 0.000000 22.523010 0.000000
					}
				}
				JOINT newVegas:Left_Peck
				{
					OFFSET 17.239599 -5.132599 25.482599
					CHANNELS 3 Xrotation Yrotation Zrotation
					End Site
					{
						OFFSET 0.000000 22.523010 0.000000
					}
				}
				JOINT newVegas:Right_Peck
				{
					OFFSET -17.239599 -5.132202 25.482599
					CHANNELS 3 Xrotation Yrotation Zrotation
					End Site
					{
						OFFSET 0.000000 22.523010 0.000000
					}
				}
				JOINT newVegas:Right_Collar
				{
					OFFSET -18.625099 8.655792 8.828100
					CHANNELS 3 Xrotation Yrotation Zrotation
					JOINT newVegas:Right_Collar1
					{
						OFFSET -14.783401 10.539993 -1.259500
						CHANNELS 3 Xrotation Yrotation Zrotation
						End Site
						{
							OFFSET 0.000000 18.199631 0.000000
						}
					}
				}
			}
		}
		JOINT newVegas:Belly
		{
			OFFSET 0.000000 -6.540398 9.014299
			CHANNELS 3 Xrotation Yrotation Zrotation
			End Site
			{
				OFFSET 0.000000 11.566666 0.000000
			}
		}
	}
	JOINT newVegas:ElvisFacialAnim_Joint
	{
		OFFSET 1.000000 -95.330101 -8.825800
		CHANNELS 3 Xrotation Yrotation Zrotation
		End Site
		{
			OFFSET 0.000000 35.315800 0.000000
		}
	}
}
MOTION
Frames: 4
Frame Time: 0.016667
-1.957165 79.790756 6.464481 0.910400 -43.287311 5.579360 -0.000000 -0.000001 0.000000 -40.537702 8.130828 23.883179 64.711637 -11.467305 -1.144764 -25.792603 -8.983269 -12.150347 -0.000000 0.000000 -0.000000 0.000005 0.000002 -0.000000 -22.163827 -6.261603 -35.951879 60.510681 -6.392981 -6.212204 -29.337350 -10.240098 29.498163 0.000000 0.000001 0.000000 -0.000002 0.000000 -0.000003 9.389336 12.917911 -4.795959 1.751731 3.638376 -1.540306 1.716102 3.636637 -1.514277 0.532097 3.056691 -1.108568 0.532107 3.056691 -1.108568 -0.000000 0.000001 -0.000000 0.532242 3.056700 -1.108577 0.531881 3.056691 -1.108556 0.000001 0.000000 -0.000000 -0.000000 0.000001 -0.000000 0.177125 3.280457 -2.501100 0.608043 -3.857609 -44.118859 0.000004 -132.706409 0.000000 -9.689304 -8.659012 15.986215 -6.141214 -11.690798 -6.761696 9.914089 42.595512 3.409870 0.000003 -0.000003 -0.000003 0.255326 3.378223 -45.814365 5.654084 5.847757 -88.067469 0.000001 -0.000003 -0.000000 -0.461472 3.841588 -39.722697 6.450749 5.820338 -95.892851 -0.000001 -0.000001 -0.000000 0.469735 4.966816 -39.799451 8.181045 5.368590 -113.503018 -0.000001 -0.000006 -0.000000 -3.762421 9.063706 -45.253825 5.342495 5.828972 -85.005317 0.000001 0.000000 -0.000002 -0.000001 0.000000 0.000002 -0.000001 0.000000 0.000002 -0.000002 0.000000 0.000002 -0.000001 -0.000001 -0.000000 -0.000000 -0.000002 -0.000003 -0.000001 -0.000001 -0.000000 -0.000001 0.000000 -0.000000 0.028598 13.490902 -3.638379 -50.086703 20.453901 65.076779 -0.000112 105.790970 0.000097 -20.892242 14.931900 -20.970351 -7.341091 13.749667 7.412313 9.855743 -44.489103 -3.903263 -0.000000 0.000001 0.000001 -0.124371 -2.384795 45.108874 4.500596 -4.654543 88.071184 -0.000002 0.000001 0.000001 -0.761621 -2.932899 39.031058 5.133881 -4.632741 95.881663 -0.000001 -0.000002 0.000005 0.154768 -4.068800 39.122668 6.509712 -4.273585 113.462843 0.000002 -0.000003 -0.000002 -4.198869 -8.025529 44.637776 4.252889 -4.639609 85.014846 0.000000 0.000002 -0.000000 -0.000003 0.000001 -0.000001 -0.000002 0.000000 0.000000 -0.000003 0.000001 -0.000000 0.000000 0.000004 -0.000000 0.000000 0.000005 -0.000000 0.000000 0.000004 -0.000000 0.000000 0.000005 0.000001 0.000001 -0.000000 0.000000 0.000001 -0.000000 0.000000 0.000001 -0.000000 0.000000 0.000001 -0.000000 0.000000 0.000001 -0.000000 0.000000 0.000001 -0.000000 0.000000 0.000001 -0.000000 0.000000 -0.000000 -0.000001 0.000000 -0.000000 -0.000001 0.000000 
-1.859316 79.934532 6.365558 1.517167 -47.275585 6.090142 -0.000000 -0.000000 0.000000 -38.352970 9.269189 24.609091 64.236058 -11.611221 -1.919458 -27.233079 -6.210594 -11.849134 -0.000000 0.000002 -0.000000 -0.000000 0.000003 -0.000001 -25.511378 -4.031038 -35.086419 60.988262 -4.411861 -7.990269 -28.250359 -9.716565 28.702261 -0.000000 0.000000 -0.000000 0.000001 -0.000001 0.000000 9.420743 13.248710 -4.827178 1.781056 3.670401 -1.552475 1.745711 3.669430 -1.526467 0.494631 3.339885 -1.189552 0.494629 3.339881 -1.189551 -0.000000 0.000002 0.000000 0.494626 3.339890 -1.189552 0.494633 3.339866 -1.189548 0.000001 0.000000 -0.000000 -0.000000 0.000002 0.000000 0.097889 3.823974 -2.193749 0.257139 0.811129 -40.840249 0.000003 -133.311905 -0.000001 -10.152837 -8.537433 13.607058 -6.141217 -11.690795 -6.761694 9.914099 42.595515 3.409865 0.000000 0.000000 0.000001 0.255325 3.378226 -45.814365 5.654087 5.847757 -88.067462 0.000001 -0.000001 0.000000 -0.461476 3.841590 -39.722693 6.450741 5.820337 -95.892857 0.000000 -0.000003 0.000000 0.469729 4.966815 -39.799444 8.181047 5.368589 -113.503018 0.000001 -0.000002 0.000001 -3.762424 9.063710 -45.253825 5.342501 5.828975 -85.005311 -0.000001 -0.000002 -0.000001 0.000000 -0.000001 -0.000000 0.000000 -0.000001 -0.000000 -0.000001 -0.000001 0.000000 -0.000001 -0.000001 0.000001 -0.000000 -0.000002 0.000001 -0.000001 -0.000001 0.000001 -0.000002 -0.000001 0.000000 0.200218 11.353364 -3.117911 -51.036949 23.059963 69.349014 -0.000216 106.457712 0.000202 -20.423613 15.369085 -21.891149 -7.341092 13.749667 7.412312 9.855746 -44.489107 -3.903266 0.000002 -0.000007 -0.000001 -0.124371 -2.384795 45.108874 4.500598 -4.654548 88.071184 -0.000001 0.000000 0.000002 -0.761622 -2.932898 39.031061 5.133878 -4.632739 95.881656 -0.000002 0.000001 -0.000000 0.154768 -4.068798 39.122668 6.509711 -4.273583 113.462843 -0.000000 0.000004 0.000000 -4.198869 -8.025531 44.637772 4.252896 -4.639610 85.014852 0.000002 0.000001 0.000002 -0.000001 0.000003 -0.000003 -0.000002 0.000001 -0.000001 -0.000001 0.000003 -0.000004 0.000000 -0.000003 0.000000 0.000000 -0.000002 0.000001 0.000000 -0.000003 0.000000 0.000000 -0.000002 0.000002 0.000001 0.000001 -0.000001 0.000001 0.000001 -0.000001 0.000001 0.000001 -0.000001 0.000001 0.000001 -0.000001 0.000001 0.000001 -0.000001 0.000001 0.000001 -0.000001 0.000001 0.000001 -0.000001 0.000000 -0.000000 0.000000 -0.000000 -0.000000 0.000000 
-1.768498 80.027534 6.194173 2.370345 -51.289120 6.629586 -0.000000 0.000004 -0.000000 -36.294590 10.128495 25.235234 63.874529 -11.708433 -2.644294 -28.745725 -3.191963 -11.582629 -0.000000 0.000003 -0.000000 -0.000001 0.000002 -0.000001 -29.073581 -2.270040 -33.559516 61.344162 -2.417299 -10.060093 -26.988050 -9.172914 27.920299 -0.000000 -0.000000 0.000000 0.000002 0.000000 -0.000000 9.319661 13.260741 -4.821993 1.771371 3.585720 -1.596584 1.740268 3.584198 -1.570213 0.441746 3.655560 -1.234333 0.441758 3.655556 -1.234335 -0.000000 0.000001 -0.000000 0.441747 3.655570 -1.234334 0.441751 3.655555 -1.234334 -0.000000 -0.000000 -0.000000 -0.000000 0.000001 0.000000 -0.027859 4.558137 -1.523011 -2.682215 4.894931 -37.047130 0.000000 -131.773610 0.000003 -12.029673 -7.006939 9.958203 -6.141214 -11.690801 -6.761694 9.914096 42.595512 3.409864 0.000001 -0.000002 0.000000 0.255325 3.378223 -45.814365 5.654088 5.847760 -88.067462 0.000001 -0.000001 0.000001 -0.461470 3.841585 -39.722693 6.450742 5.820337 -95.892851 -0.000002 0.000001 -0.000000 0.469729 4.966821 -39.799447 8.181049 5.368590 -113.503018 0.000003 -0.000001 0.000000 -3.762420 9.063705 -45.253821 5.342502 5.828972 -85.005311 -0.000002 -0.000005 -0.000000 -0.000001 -0.000001 -0.000001 -0.000001 -0.000001 -0.000001 -0.000002 -0.000001 -0.000001 0.000002 -0.000003 -0.000002 0.000003 -0.000003 -0.000005 0.000002 -0.000003 -0.000002 0.000002 -0.000002 -0.000002 0.408007 9.523255 -2.592240 -52.008670 26.162966 72.996178 -0.000316 106.923797 0.000314 -20.167213 15.760644 -22.777342 -7.341091 13.749665 7.412312 9.855744 -44.489107 -3.903262 0.000001 -0.000005 -0.000001 -0.124371 -2.384794 45.108871 4.500599 -4.654543 88.071184 0.000001 0.000001 0.000000 -0.761621 -2.932899 39.031061 5.133879 -4.632738 95.881656 0.000001 0.000000 -0.000001 0.154767 -4.068800 39.122668 6.509710 -4.273584 113.462843 0.000004 0.000001 -0.000000 -4.198869 -8.025530 44.637776 4.252895 -4.639612 85.014846 0.000002 0.000002 -0.000001 0.000001 0.000002 -0.000002 0.000002 0.000001 -0.000003 0.000001 0.000002 -0.000002 -0.000001 0.000000 -0.000001 -0.000001 0.000001 -0.000001 -0.000001 0.000000 -0.000001 -0.000001 -0.000000 -0.000001 0.000000 0.000001 -0.000000 0.000000 0.000001 -0.000000 0.000000 0.000001 -0.000000 0.000000 0.000001 -0.000000 0.000000 0.000001 -0.000000 0.000000 0.000001 -0.000000 0.000000 0.000001 -0.000000 0.000000 -0.000000 -0.000000 -0.000000 0.000004 -0.000000 
-1.670952 80.067497 5.948855 3.223239 -54.946218 7.025976 0.000000 0.000001 -0.000000 -34.472043 10.580286 25.677294 63.733725 -11.818404 -3.148325 -30.204370 -0.080656 -11.418950 -0.000000 -0.000006 0.000000 0.000001 -0.000001 -0.000000 -32.184879 -0.487718 -32.584927 61.871132 -0.227300 -10.130679 -25.912988 -8.084962 26.393436 -0.000000 0.000001 0.000000 0.000001 0.000002 -0.000003 9.199410 12.901862 -4.746772 1.764131 3.368147 -1.656708 1.742112 3.364809 -1.629985 0.380691 3.970729 -1.244462 0.380688 3.970735 -1.244459 0.000000 0.000001 -0.000000 0.380688 3.970727 -1.244461 0.380690 3.970742 -1.244463 -0.000001 0.000001 -0.000000 0.000000 0.000001 -0.000000 -0.179992 5.325322 -0.579759 -7.789437 6.885918 -33.013152 0.000050 -127.270289 0.000047 -14.645184 -4.440910 5.722879 -6.141215 -11.690799 -6.761699 9.914101 42.595512 3.409868 0.000003 0.000001 -0.000003 0.255329 3.378222 -45.814361 5.654091 5.847760 -88.067462 0.000001 0.000004 0.000001 -0.461468 3.841587 -39.722693 6.450741 5.820338 -95.892851 0.000001 0.000001 -0.000000 0.469735 4.966818 -39.799451 8.181039 5.368592 -113.503018 -0.000000 -0.000004 0.000002 -3.762412 9.063704 -45.253825 5.342496 5.828971 -85.005311 0.000001 -0.000005 -0.000000 0.000002 0.000000 -0.000001 0.000002 0.000000 -0.000001 0.000001 0.000000 -0.000001 0.000001 0.000003 -0.000001 0.000001 0.000002 -0.000002 0.000001 0.000003 -0.000001 0.000001 0.000003 -0.000002 0.645879 8.044687 -2.081284 -52.775663 29.458527 75.713849 -0.000057 107.580705 0.000047 -20.173239 16.137946 -23.571475 -7.341091 13.749667 7.412313 9.855742 -44.489107 -3.903264 0.000003 -0.000009 0.000000 -0.124371 -2.384795 45.108874 4.500599 -4.654545 88.071184 -0.000001 0.000002 -0.000002 -0.761621 -2.932902 39.031061 5.133880 -4.632739 95.881663 -0.000002 0.000003 0.000001 0.154769 -4.068802 39.122668 6.509714 -4.273587 113.462850 0.000000 -0.000001 0.000002 -4.198866 -8.025528 44.637776 4.252898 -4.639612 85.014852 0.000003 0.000002 -0.000004 -0.000001 0.000001 0.000001 -0.000001 -0.000000 -0.000001 -0.000001 0.000001 0.000000 -0.000001 -0.000002 0.000001 -0.000001 -0.000001 0.000001 -0.000001 -0.000002 0.000001 -0.000001 -0.000001 0.000001 0.000001 0.000001 0.000000 0.000001 0.000001 0.000000 0.000001 0.000001 0.000000 0.000001 0.000001 0.000000 0.000001 0.000001 0.000000 0.000001 0.000001 0.000000 0.000001 0.000001 0.000000 0.000000 -0.000001 -0.000000 0.000000 0.000001 -0.000000 
